<?xml version="1.0" encoding="utf-8" standalone="no"?>
<!DOCTYPE svg PUBLIC "-//W3C//DTD SVG 1.1//EN"
  "http://www.w3.org/Graphics/SVG/1.1/DTD/svg11.dtd">
<svg xmlns:xlink="http://www.w3.org/1999/xlink" width="448.523333pt" height="409.68pt" viewBox="0 0 448.523333 409.68" xmlns="http://www.w3.org/2000/svg" version="1.1">
 <metadata>
  <rdf:RDF xmlns:dc="http://purl.org/dc/elements/1.1/" xmlns:cc="http://creativecommons.org/ns#" xmlns:rdf="http://www.w3.org/1999/02/22-rdf-syntax-ns#">
   <cc:Work>
    <dc:type rdf:resource="http://purl.org/dc/dcmitype/StillImage"/>
    <dc:date>2025-08-23T14:37:47.023518</dc:date>
    <dc:format>image/svg+xml</dc:format>
    <dc:creator>
     <cc:Agent>
      <dc:title>Matplotlib v3.9.2, https://matplotlib.org/</dc:title>
     </cc:Agent>
    </dc:creator>
   </cc:Work>
  </rdf:RDF>
 </metadata>
 <defs>
  <style type="text/css">*{stroke-linejoin: round; stroke-linecap: butt}</style>
 </defs>
 <g id="figure_1">
  <g id="patch_1">
   <path d="M 0 409.68 
L 448.523333 409.68 
L 448.523333 0 
L 0 0 
L 0 409.68 
z
" style="fill: none"/>
  </g>
  <g id="axes_1">
   <g id="patch_2">
    <path d="M 224.261667 262.66675 
C 227.817178 262.66675 231.227544 261.25413 233.741671 258.740004 
C 236.255797 256.225877 237.668417 252.815512 237.668417 249.26 
C 237.668417 245.704488 236.255797 242.294123 233.741671 239.779996 
C 231.227544 237.26587 227.817178 235.85325 224.261667 235.85325 
C 220.706155 235.85325 217.295789 237.26587 214.781663 239.779996 
C 212.267536 242.294123 210.854917 245.704488 210.854917 249.26 
C 210.854917 252.815512 212.267536 256.225877 214.781663 258.740004 
C 217.295789 261.25413 220.706155 262.66675 224.261667 262.66675 
z
" clip-path="url(#p75730af671)" style="fill: #ffffff"/>
   </g>
   <g id="patch_3">
    <path d="M 225.242807 246.961488 
Q 274.47078 218.539704 323.698753 190.11792 
L 319.948753 183.62273 
Q 326.528409 185.020116 333.108065 186.417503 
Q 331.028409 192.814345 328.948753 199.211187 
L 325.198753 192.715997 
Q 275.97078 221.13778 226.742807 249.559564 
L 225.242807 246.961488 
z
" clip-path="url(#p75730af671)" style="fill: #ffffff; stroke: #ffffff; stroke-width: 2.5; stroke-linecap: round"/>
   </g>
   <g id="line2d_1">
    <path d="M 224.261667 249.26 
L 225.178937 250.63602 
L 226.265453 251.877506 
L 227.488497 252.93246 
L 228.746287 253.718921 
L 229.992605 254.232794 
L 231.189741 254.482438 
L 232.308614 254.48608 
L 233.328455 254.2693 
L 234.294556 253.828437 
L 235.132684 253.204836 
L 235.887784 252.373652 
L 236.542982 251.333258 
L 237.113359 249.993821 
L 237.53259 248.421272 
L 237.782952 246.622848 
L 237.845732 244.476298 
L 237.682004 242.103144 
L 237.276682 239.523929 
L 236.61736 236.763077 
L 235.69456 233.848716 
L 234.501957 230.81245 
L 233.036565 227.689083 
L 231.298897 224.516293 
L 229.293077 221.334275 
L 227.167249 218.368869 
L 224.820329 215.469379 
L 222.264789 212.673399 
L 219.693128 210.180132 
L 216.966522 207.843049 
L 214.102026 205.693673 
L 211.320901 203.88439 
L 208.453317 202.290462 
L 205.729223 201.024194 
L 202.962184 199.982769 
L 200.384224 199.236257 
L 197.797467 198.709428 
L 195.216074 198.41455 
L 192.866972 198.357725 
L 190.546164 198.513369 
L 188.265385 198.888734 
L 186.036535 199.490259 
L 183.871624 200.323521 
L 181.969167 201.286071 
L 180.138605 202.446834 
L 178.388985 203.807962 
L 176.729287 205.370908 
L 175.168391 207.136407 
L 173.715042 209.10446 
L 172.377815 211.274311 
L 171.165075 213.644443 
L 170.08495 216.21256 
L 169.145286 218.975582 
L 168.282873 222.235378 
L 167.609074 225.720052 
L 167.132874 229.422183 
L 166.862641 233.3332 
L 166.80608 237.443384 
L 166.970184 241.741894 
L 167.361183 246.216779 
L 167.984501 250.855009 
L 168.844718 255.642507 
L 169.945524 260.564185 
L 171.289688 265.603983 
L 172.879024 270.744921 
L 174.714359 275.96915 
L 176.795513 281.258002 
L 179.12127 286.59206 
L 181.689366 291.951217 
L 184.496472 297.314749 
L 187.538184 302.661388 
L 190.809021 307.969396 
L 194.302419 313.216651 
L 198.010741 318.380729 
L 201.925281 323.438987 
L 206.036276 328.368659 
L 210.332928 333.146942 
L 214.390161 337.340325 
L 218.581491 341.372814 
L 222.896676 345.227593 
L 227.324842 348.88807 
L 231.854504 352.337941 
L 236.473593 355.561243 
L 241.169492 358.542422 
L 245.450621 361.005987 
L 249.77341 363.250566 
L 254.127641 365.2659 
L 258.502824 367.042143 
L 262.888215 368.569898 
L 267.272843 369.840246 
L 271.160622 370.746542 
L 275.031009 371.437259 
L 278.875947 371.907208 
L 282.687299 372.151571 
L 286.456866 372.165918 
L 290.176404 371.946223 
L 293.837639 371.488873 
L 294.742867 371.337019 
L 294.742867 371.337019 
" clip-path="url(#p75730af671)" style="fill: none; stroke: #ffffff; stroke-width: 4.5; stroke-linecap: round"/>
   </g>
   <g id="line2d_2">
    <path d="M 224.261667 249.26 
L 223.344396 247.88398 
L 222.25788 246.642494 
L 221.034836 245.58754 
L 219.777047 244.801079 
L 218.530728 244.287206 
L 217.333593 244.037562 
L 216.21472 244.03392 
L 215.194879 244.2507 
L 214.228778 244.691563 
L 213.39065 245.315164 
L 212.63555 246.146348 
L 211.980351 247.186742 
L 211.409975 248.526179 
L 210.990744 250.098728 
L 210.740381 251.897152 
L 210.677602 254.043702 
L 210.841329 256.416856 
L 211.246651 258.996071 
L 211.905974 261.756923 
L 212.828773 264.671284 
L 214.021376 267.70755 
L 215.486768 270.830917 
L 217.224437 274.003707 
L 219.230256 277.185725 
L 221.356084 280.151131 
L 223.703004 283.050621 
L 226.258544 285.846601 
L 228.830205 288.339868 
L 231.556811 290.676951 
L 234.421308 292.826327 
L 237.202432 294.63561 
L 240.070017 296.229538 
L 242.794111 297.495806 
L 245.56115 298.537231 
L 248.139109 299.283743 
L 250.725866 299.810572 
L 253.307259 300.10545 
L 255.656361 300.162275 
L 257.977169 300.006631 
L 260.257948 299.631266 
L 262.486799 299.029741 
L 264.651709 298.196479 
L 266.554167 297.233929 
L 268.384728 296.073166 
L 270.134348 294.712038 
L 271.794047 293.149092 
L 273.354943 291.383593 
L 274.808291 289.41554 
L 276.145519 287.245689 
L 277.358258 284.875557 
L 278.438384 282.30744 
L 279.378048 279.544418 
L 280.24046 276.284622 
L 280.914259 272.799948 
L 281.39046 269.097817 
L 281.660693 265.1868 
L 281.717253 261.076616 
L 281.553149 256.778106 
L 281.162151 252.303221 
L 280.538832 247.664991 
L 279.678615 242.877493 
L 278.577809 237.955815 
L 277.233645 232.916017 
L 275.64431 227.775079 
L 273.808974 222.55085 
L 271.72782 217.261998 
L 269.402063 211.92794 
L 266.833967 206.568783 
L 264.026861 201.205251 
L 260.985149 195.858612 
L 257.714313 190.550604 
L 254.220914 185.303349 
L 250.512592 180.139271 
L 246.598053 175.081013 
L 242.487057 170.151341 
L 238.190405 165.373058 
L 234.133173 161.179675 
L 229.941843 157.147186 
L 225.626657 153.292407 
L 221.198491 149.63193 
L 216.66883 146.182059 
L 212.04974 142.958757 
L 207.353841 139.977578 
L 203.072712 137.514013 
L 198.749924 135.269434 
L 194.395692 133.2541 
L 190.020509 131.477857 
L 185.635118 129.950102 
L 181.25049 128.679754 
L 177.362711 127.773458 
L 173.492324 127.082741 
L 169.647387 126.612792 
L 165.836035 126.368429 
L 162.066467 126.354082 
L 158.346929 126.573777 
L 154.685694 127.031127 
L 153.780467 127.182981 
L 153.780467 127.182981 
" clip-path="url(#p75730af671)" style="fill: none; stroke: #ffffff; stroke-width: 4.5; stroke-linecap: round"/>
   </g>
   <g id="line2d_3">
    <path d="M 270.795384 161.882442 
L 265.212318 155.896899 
L 259.500909 150.203966 
L 255.14388 146.137063 
L 250.732402 142.251979 
L 246.274252 138.555566 
L 241.77729 135.054341 
L 237.249446 131.754477 
L 232.698703 128.661792 
L 228.133084 125.781739 
L 223.560639 123.119395 
L 218.989431 120.679456 
L 214.427517 118.466223 
L 209.882943 116.483597 
L 205.363721 114.735076 
L 200.877818 113.223741 
L 196.433145 111.952258 
L 192.037537 110.922867 
L 187.698745 110.137385 
L 183.424419 109.597196 
L 179.222094 109.303253 
L 175.099181 109.256073 
L 171.062948 109.455741 
L 167.120512 109.901903 
L 163.278825 110.593774 
L 159.544658 111.530133 
L 155.924597 112.709329 
L 152.425024 114.129284 
L 149.05211 115.787494 
L 145.811801 117.681035 
L 142.709809 119.806568 
L 139.751606 122.160346 
L 136.942406 124.73822 
L 134.287162 127.535643 
L 131.790556 130.547683 
L 129.45699 133.76903 
L 127.290579 137.194005 
L 125.295141 140.816567 
L 123.474195 144.630331 
L 121.830952 148.628572 
L 120.368309 152.804241 
L 119.088845 157.149975 
L 117.994816 161.658113 
L 117.08815 166.320704 
L 116.370447 171.12953 
L 115.842971 176.076111 
L 115.506653 181.151726 
L 115.362086 186.347425 
L 115.409524 191.654048 
L 115.648884 197.062239 
L 116.079744 202.562462 
L 116.701345 208.145019 
L 117.512589 213.800068 
L 118.512047 219.517638 
L 119.697958 225.287648 
L 121.068228 231.099924 
L 122.620444 236.94422 
L 124.968315 244.768605 
L 127.627382 252.607067 
L 130.589313 260.435038 
L 133.844824 268.227986 
L 137.383712 275.961485 
L 141.194886 283.611299 
L 145.266401 291.153453 
L 149.585497 298.564307 
L 154.138637 305.820635 
L 158.91155 312.899696 
L 163.889279 319.779302 
L 169.056222 326.437893 
L 174.396185 332.854598 
L 179.892432 339.009309 
L 185.527738 344.882734 
L 189.834865 349.092102 
L 194.202691 353.125451 
L 198.623516 356.975671 
L 203.089544 360.635972 
L 207.592901 364.099902 
L 212.125648 367.361352 
L 216.679793 370.414573 
L 221.247306 373.254181 
L 225.820133 375.875169 
L 230.390212 378.272917 
L 234.949486 380.443197 
L 239.489916 382.382181 
L 244.003496 384.086453 
L 248.482269 385.553006 
L 252.918337 386.779254 
L 257.30388 387.763037 
L 261.631164 388.502619 
L 265.89256 388.996696 
L 270.080555 389.244398 
L 274.187765 389.245287 
L 278.206949 388.999362 
L 282.131018 388.507056 
L 285.953056 387.769238 
L 289.666323 386.787208 
L 293.264273 385.562698 
L 296.740561 384.097867 
L 300.089058 382.395298 
L 303.30386 380.457992 
L 306.3793 378.289365 
L 309.309955 375.89324 
L 312.090658 373.273844 
L 314.716505 370.435793 
L 317.182868 367.384091 
L 319.485397 364.124121 
L 321.620033 360.661628 
L 323.583012 357.002718 
L 325.370874 353.153842 
L 326.980465 349.121787 
L 328.408949 344.913661 
L 329.653806 340.536884 
L 330.712842 335.999172 
L 331.584189 331.308527 
L 332.266311 326.473219 
L 332.758005 321.501773 
L 333.058405 316.402954 
L 333.16698 311.185753 
L 333.08354 305.859367 
L 332.808231 300.433189 
L 332.34154 294.916785 
L 331.684287 289.319882 
L 330.837634 283.652347 
L 329.803072 277.924174 
L 328.582425 272.145462 
L 327.177845 266.326399 
L 325.59181 260.477246 
L 323.19971 252.649398 
L 323.19971 252.649398 
" clip-path="url(#p75730af671)" style="fill: none; stroke: #ffffff; stroke-width: 4.5; stroke-linecap: round"/>
   </g>
  </g>
  <g id="text_1">
   <!-- CAROLINA -->
   <g style="fill: #ffffff" transform="translate(124.452292 34.4875) scale(0.4 -0.4)">
    <defs>
     <path id="GillSans-43" d="M 4244 1013 
L 4244 325 
Q 3556 -50 2656 -50 
Q 1925 -50 1415 244 
Q 906 538 609 1053 
Q 313 1569 313 2169 
Q 313 3122 992 3772 
Q 1672 4422 2669 4422 
Q 3356 4422 4197 4063 
L 4197 3391 
Q 3431 3828 2700 3828 
Q 1950 3828 1454 3354 
Q 959 2881 959 2169 
Q 959 1450 1446 987 
Q 1934 525 2694 525 
Q 3488 525 4244 1013 
z
" transform="scale(0.015625)"/>
     <path id="GillSans-41" d="M 1875 4391 
L 2316 4391 
L 4269 0 
L 3628 0 
L 3047 1294 
L 1191 1294 
L 641 0 
L 0 0 
L 1875 4391 
z
M 2791 1850 
L 2088 3431 
L 1434 1850 
L 2791 1850 
z
" transform="scale(0.015625)"/>
     <path id="GillSans-52" d="M 500 0 
L 500 4366 
L 1594 4366 
Q 2256 4366 2645 4037 
Q 3034 3709 3034 3150 
Q 3034 2769 2843 2491 
Q 2653 2213 2297 2075 
Q 2506 1938 2706 1700 
Q 2906 1463 3269 872 
Q 3497 500 3634 313 
L 3866 0 
L 3122 0 
L 2931 288 
Q 2922 303 2894 341 
L 2772 513 
L 2578 831 
L 2369 1172 
Q 2175 1441 2014 1600 
Q 1853 1759 1723 1829 
Q 1594 1900 1288 1900 
L 1125 1900 
L 1125 0 
L 500 0 
z
M 1313 3834 
L 1125 3834 
L 1125 2456 
L 1363 2456 
Q 1838 2456 2014 2537 
Q 2191 2619 2289 2783 
Q 2388 2947 2388 3156 
Q 2388 3363 2278 3530 
Q 2169 3697 1970 3765 
Q 1772 3834 1313 3834 
z
" transform="scale(0.015625)"/>
     <path id="GillSans-4f" d="M 2625 4428 
Q 3638 4428 4311 3787 
Q 4984 3147 4984 2181 
Q 4984 1216 4304 583 
Q 3625 -50 2591 -50 
Q 1603 -50 945 583 
Q 288 1216 288 2169 
Q 288 3147 950 3787 
Q 1613 4428 2625 4428 
z
M 2650 3834 
Q 1900 3834 1417 3365 
Q 934 2897 934 2169 
Q 934 1463 1418 994 
Q 1903 525 2631 525 
Q 3363 525 3852 1003 
Q 4341 1481 4341 2194 
Q 4341 2888 3852 3361 
Q 3363 3834 2650 3834 
z
" transform="scale(0.015625)"/>
     <path id="GillSans-4c" d="M 481 4366 
L 1106 4366 
L 1106 569 
L 3072 569 
L 3072 0 
L 481 0 
L 481 4366 
z
" transform="scale(0.015625)"/>
     <path id="GillSans-49" d="M 488 4366 
L 1113 4366 
L 1113 0 
L 488 0 
L 488 4366 
z
" transform="scale(0.015625)"/>
     <path id="GillSans-4e" d="M 3950 4366 
L 4544 4366 
L 4544 0 
L 4006 0 
L 1088 3359 
L 1088 0 
L 500 0 
L 500 4366 
L 1006 4366 
L 3950 978 
L 3950 4366 
z
" transform="scale(0.015625)"/>
    </defs>
    <use xlink:href="#GillSans-43"/>
    <use xlink:href="#GillSans-41" x="70.800781"/>
    <use xlink:href="#GillSans-52" x="137.5"/>
    <use xlink:href="#GillSans-4f" x="197.900391"/>
    <use xlink:href="#GillSans-4c" x="280.224609"/>
    <use xlink:href="#GillSans-49" x="329.248047"/>
    <use xlink:href="#GillSans-4e" x="354.248047"/>
    <use xlink:href="#GillSans-41" x="432.324219"/>
   </g>
  </g>
  <g id="text_2">
   <!-- Connecting Analyses and Research  -->
   <g style="fill: #ffffff" transform="translate(80.153854 62.43875) scale(0.2 -0.2)">
    <defs>
     <path id="GillSans-6f" d="M 1778 2881 
Q 2434 2881 2868 2457 
Q 3303 2034 3303 1394 
Q 3303 772 2862 361 
Q 2422 -50 1753 -50 
Q 1106 -50 672 367 
Q 238 784 238 1409 
Q 238 2041 677 2461 
Q 1116 2881 1778 2881 
z
M 1747 2369 
Q 1338 2369 1075 2100 
Q 813 1831 813 1416 
Q 813 1003 1081 742 
Q 1350 481 1772 481 
Q 2191 481 2458 745 
Q 2725 1009 2725 1422 
Q 2725 1831 2447 2100 
Q 2169 2369 1747 2369 
z
" transform="scale(0.015625)"/>
     <path id="GillSans-6e" d="M 972 2875 
L 972 2509 
Q 1353 2931 1838 2931 
Q 2106 2931 2337 2792 
Q 2569 2653 2689 2411 
Q 2809 2169 2809 1644 
L 2809 0 
L 2241 0 
L 2241 1638 
Q 2241 2078 2106 2267 
Q 1972 2456 1656 2456 
Q 1253 2456 972 2053 
L 972 0 
L 391 0 
L 391 2875 
L 972 2875 
z
" transform="scale(0.015625)"/>
     <path id="GillSans-65" d="M 2853 1388 
L 831 1388 
Q 853 975 1108 731 
Q 1363 488 1766 488 
Q 2328 488 2803 838 
L 2803 281 
Q 2541 106 2283 31 
Q 2025 -44 1678 -44 
Q 1203 -44 909 153 
Q 616 350 439 683 
Q 263 1016 263 1453 
Q 263 2109 634 2520 
Q 1006 2931 1600 2931 
Q 2172 2931 2512 2531 
Q 2853 2131 2853 1459 
L 2853 1388 
z
M 844 1728 
L 2291 1728 
Q 2269 2069 2087 2253 
Q 1906 2438 1600 2438 
Q 1294 2438 1098 2253 
Q 903 2069 844 1728 
z
" transform="scale(0.015625)"/>
     <path id="GillSans-63" d="M 2559 672 
L 2559 109 
Q 2131 -50 1722 -50 
Q 1047 -50 645 350 
Q 244 750 244 1422 
Q 244 2100 634 2515 
Q 1025 2931 1663 2931 
Q 1884 2931 2061 2889 
Q 2238 2847 2497 2731 
L 2497 2125 
Q 2066 2400 1697 2400 
Q 1313 2400 1066 2129 
Q 819 1859 819 1441 
Q 819 1000 1086 740 
Q 1353 481 1806 481 
Q 2134 481 2559 672 
z
" transform="scale(0.015625)"/>
     <path id="GillSans-74" d="M 0 2419 
L 1069 3469 
L 1069 2875 
L 1978 2875 
L 1978 2363 
L 1069 2363 
L 1069 953 
Q 1069 459 1478 459 
Q 1784 459 2125 666 
L 2125 134 
Q 1797 -50 1409 -50 
Q 1019 -50 759 178 
Q 678 247 625 333 
Q 572 419 536 558 
Q 500 697 500 1088 
L 500 2363 
L 0 2363 
L 0 2419 
z
" transform="scale(0.015625)"/>
     <path id="GillSans-69" d="M 697 4084 
Q 838 4084 938 3987 
Q 1038 3891 1038 3750 
Q 1038 3613 938 3513 
Q 838 3413 697 3413 
Q 566 3413 466 3514 
Q 366 3616 366 3750 
Q 366 3881 466 3982 
Q 566 4084 697 4084 
z
M 416 2875 
L 984 2875 
L 984 0 
L 416 0 
L 416 2875 
z
" transform="scale(0.015625)"/>
     <path id="GillSans-67" d="M 256 1881 
Q 256 2341 592 2608 
Q 928 2875 1509 2875 
L 2694 2875 
L 2694 2431 
L 2113 2431 
Q 2281 2259 2347 2118 
Q 2413 1978 2413 1797 
Q 2413 1572 2284 1355 
Q 2156 1138 1954 1022 
Q 1753 906 1294 838 
Q 972 791 972 616 
Q 972 516 1092 452 
Q 1213 388 1528 319 
Q 2056 203 2207 137 
Q 2359 72 2481 -50 
Q 2688 -256 2688 -569 
Q 2688 -978 2323 -1222 
Q 1959 -1466 1350 -1466 
Q 734 -1466 367 -1220 
Q 0 -975 0 -563 
Q 0 22 722 191 
Q 434 375 434 556 
Q 434 694 557 806 
Q 681 919 891 972 
Q 256 1253 256 1881 
z
M 1325 2381 
Q 1094 2381 931 2225 
Q 769 2069 769 1850 
Q 769 1628 928 1483 
Q 1088 1338 1331 1338 
Q 1572 1338 1733 1486 
Q 1894 1634 1894 1856 
Q 1894 2081 1731 2231 
Q 1569 2381 1325 2381 
z
M 1191 -134 
Q 903 -134 720 -256 
Q 538 -378 538 -569 
Q 538 -1013 1338 -1013 
Q 1716 -1013 1923 -902 
Q 2131 -791 2131 -588 
Q 2131 -388 1868 -261 
Q 1606 -134 1191 -134 
z
" transform="scale(0.015625)"/>
     <path id="GillSans-20" transform="scale(0.015625)"/>
     <path id="GillSans-61" d="M 2209 1728 
L 2209 506 
Q 2209 359 2309 359 
Q 2413 359 2631 513 
L 2631 166 
Q 2438 41 2320 -4 
Q 2203 -50 2075 -50 
Q 1709 -50 1644 238 
Q 1281 -44 872 -44 
Q 572 -44 372 154 
Q 172 353 172 653 
Q 172 925 367 1139 
Q 563 1353 922 1478 
L 1650 1728 
L 1650 1881 
Q 1650 2400 1131 2400 
Q 666 2400 225 1919 
L 225 2541 
Q 556 2931 1178 2931 
Q 1644 2931 1925 2688 
Q 2019 2609 2094 2479 
Q 2169 2350 2189 2220 
Q 2209 2091 2209 1728 
z
M 1650 569 
L 1650 1422 
L 1269 1275 
Q 978 1159 858 1042 
Q 738 925 738 750 
Q 738 572 852 459 
Q 966 347 1147 347 
Q 1419 347 1650 569 
z
" transform="scale(0.015625)"/>
     <path id="GillSans-6c" d="M 416 4366 
L 984 4366 
L 984 0 
L 416 0 
L 416 4366 
z
" transform="scale(0.015625)"/>
     <path id="GillSans-79" d="M 2163 2875 
L 2803 2875 
L 769 -1466 
L 134 -1466 
L 1113 616 
L 0 2875 
L 647 2875 
L 1422 1253 
L 2163 2875 
z
" transform="scale(0.015625)"/>
     <path id="GillSans-73" d="M 263 206 
L 263 819 
Q 503 650 754 545 
Q 1006 441 1178 441 
Q 1356 441 1484 528 
Q 1613 616 1613 738 
Q 1613 863 1530 945 
Q 1447 1028 1172 1184 
Q 622 1491 451 1708 
Q 281 1925 281 2181 
Q 281 2513 539 2722 
Q 797 2931 1203 2931 
Q 1625 2931 2069 2694 
L 2069 2131 
Q 1563 2438 1241 2438 
Q 1075 2438 973 2367 
Q 872 2297 872 2181 
Q 872 2081 964 1990 
Q 1056 1900 1288 1772 
L 1491 1656 
Q 2209 1250 2209 756 
Q 2209 403 1932 176 
Q 1656 -50 1222 -50 
Q 966 -50 766 4 
Q 566 59 263 206 
z
" transform="scale(0.015625)"/>
     <path id="GillSans-64" d="M 2322 4366 
L 2894 4366 
L 2894 0 
L 1678 0 
Q 1041 0 661 403 
Q 281 806 281 1484 
Q 281 2119 679 2528 
Q 1078 2938 1697 2938 
Q 1984 2938 2322 2816 
L 2322 4366 
z
M 2322 488 
L 2322 2309 
Q 2056 2444 1784 2444 
Q 1359 2444 1107 2166 
Q 856 1888 856 1416 
Q 856 972 1075 731 
Q 1206 588 1353 538 
Q 1500 488 1881 488 
L 2322 488 
z
" transform="scale(0.015625)"/>
     <path id="GillSans-72" d="M 1013 2875 
L 1013 2216 
L 1044 2266 
Q 1456 2931 1869 2931 
Q 2191 2931 2541 2606 
L 2241 2106 
Q 1944 2388 1691 2388 
Q 1416 2388 1214 2125 
Q 1013 1863 1013 1503 
L 1013 0 
L 441 0 
L 441 2875 
L 1013 2875 
z
" transform="scale(0.015625)"/>
     <path id="GillSans-68" d="M 391 4366 
L 959 4366 
L 959 2497 
Q 1316 2931 1844 2931 
Q 2131 2931 2359 2787 
Q 2588 2644 2698 2391 
Q 2809 2138 2809 1638 
L 2809 0 
L 2241 0 
L 2241 1778 
Q 2241 2094 2086 2286 
Q 1931 2478 1678 2478 
Q 1491 2478 1325 2381 
Q 1159 2284 959 2059 
L 959 0 
L 391 0 
L 391 4366 
z
" transform="scale(0.015625)"/>
    </defs>
    <use xlink:href="#GillSans-43"/>
    <use xlink:href="#GillSans-6f" x="70.800781"/>
    <use xlink:href="#GillSans-6e" x="125.976562"/>
    <use xlink:href="#GillSans-6e" x="175.976562"/>
    <use xlink:href="#GillSans-65" x="225.976562"/>
    <use xlink:href="#GillSans-63" x="273.876953"/>
    <use xlink:href="#GillSans-74" x="317.675781"/>
    <use xlink:href="#GillSans-69" x="350.976562"/>
    <use xlink:href="#GillSans-6e" x="372.900391"/>
    <use xlink:href="#GillSans-67" x="422.900391"/>
    <use xlink:href="#GillSans-20" x="465.576172"/>
    <use xlink:href="#GillSans-41" x="493.359375"/>
    <use xlink:href="#GillSans-6e" x="560.058594"/>
    <use xlink:href="#GillSans-61" x="610.058594"/>
    <use xlink:href="#GillSans-6c" x="652.734375"/>
    <use xlink:href="#GillSans-79" x="674.658203"/>
    <use xlink:href="#GillSans-73" x="718.457031"/>
    <use xlink:href="#GillSans-65" x="756.933594"/>
    <use xlink:href="#GillSans-73" x="804.833984"/>
    <use xlink:href="#GillSans-20" x="843.310547"/>
    <use xlink:href="#GillSans-61" x="871.09375"/>
    <use xlink:href="#GillSans-6e" x="913.769531"/>
    <use xlink:href="#GillSans-64" x="963.769531"/>
    <use xlink:href="#GillSans-20" x="1014.746094"/>
    <use xlink:href="#GillSans-52" x="1042.529297"/>
    <use xlink:href="#GillSans-65" x="1102.929688"/>
    <use xlink:href="#GillSans-73" x="1150.830078"/>
    <use xlink:href="#GillSans-65" x="1189.306641"/>
    <use xlink:href="#GillSans-61" x="1237.207031"/>
    <use xlink:href="#GillSans-72" x="1279.882812"/>
    <use xlink:href="#GillSans-63" x="1319.482422"/>
    <use xlink:href="#GillSans-68" x="1363.28125"/>
    <use xlink:href="#GillSans-20" x="1413.28125"/>
   </g>
  </g>
  <g id="text_3">
   <!--  On Lensing and INtrinsic Alignments -->
   <g style="fill: #ffffff" transform="translate(72.561667 85.4575) scale(0.2 -0.2)">
    <defs>
     <path id="GillSans-6d" d="M 2759 2088 
L 2759 0 
L 2188 0 
L 2188 1600 
Q 2188 2078 2059 2267 
Q 1931 2456 1613 2456 
Q 1434 2456 1286 2375 
Q 1138 2294 947 2088 
L 947 0 
L 378 0 
L 378 2875 
L 947 2875 
L 947 2497 
Q 1381 2931 1797 2931 
Q 2344 2931 2644 2413 
Q 3100 2938 3597 2938 
Q 4016 2938 4286 2631 
Q 4556 2325 4556 1697 
L 4556 0 
L 3988 0 
L 3988 1703 
Q 3988 2063 3841 2253 
Q 3694 2444 3419 2444 
Q 3066 2444 2759 2088 
z
" transform="scale(0.015625)"/>
    </defs>
    <use xlink:href="#GillSans-20"/>
    <use xlink:href="#GillSans-4f" x="27.783203"/>
    <use xlink:href="#GillSans-6e" x="110.107422"/>
    <use xlink:href="#GillSans-20" x="160.107422"/>
    <use xlink:href="#GillSans-4c" x="187.890625"/>
    <use xlink:href="#GillSans-65" x="236.914062"/>
    <use xlink:href="#GillSans-6e" x="284.814453"/>
    <use xlink:href="#GillSans-73" x="334.814453"/>
    <use xlink:href="#GillSans-69" x="373.291016"/>
    <use xlink:href="#GillSans-6e" x="395.214844"/>
    <use xlink:href="#GillSans-67" x="445.214844"/>
    <use xlink:href="#GillSans-20" x="487.890625"/>
    <use xlink:href="#GillSans-61" x="515.673828"/>
    <use xlink:href="#GillSans-6e" x="558.349609"/>
    <use xlink:href="#GillSans-64" x="608.349609"/>
    <use xlink:href="#GillSans-20" x="659.326172"/>
    <use xlink:href="#GillSans-49" x="687.109375"/>
    <use xlink:href="#GillSans-4e" x="712.109375"/>
    <use xlink:href="#GillSans-74" x="790.185547"/>
    <use xlink:href="#GillSans-72" x="823.486328"/>
    <use xlink:href="#GillSans-69" x="863.085938"/>
    <use xlink:href="#GillSans-6e" x="885.009766"/>
    <use xlink:href="#GillSans-73" x="935.009766"/>
    <use xlink:href="#GillSans-69" x="973.486328"/>
    <use xlink:href="#GillSans-63" x="995.410156"/>
    <use xlink:href="#GillSans-20" x="1039.208984"/>
    <use xlink:href="#GillSans-41" x="1066.992188"/>
    <use xlink:href="#GillSans-6c" x="1133.691406"/>
    <use xlink:href="#GillSans-69" x="1155.615234"/>
    <use xlink:href="#GillSans-67" x="1177.539062"/>
    <use xlink:href="#GillSans-6e" x="1220.214844"/>
    <use xlink:href="#GillSans-6d" x="1270.214844"/>
    <use xlink:href="#GillSans-65" x="1347.314453"/>
    <use xlink:href="#GillSans-6e" x="1395.214844"/>
    <use xlink:href="#GillSans-74" x="1445.214844"/>
    <use xlink:href="#GillSans-73" x="1478.515625"/>
   </g>
  </g>
 </g>
 <defs>
  <clipPath id="p75730af671">
   <rect x="7.2" y="96.04" width="434.123333" height="306.44"/>
  </clipPath>
 </defs>
</svg>
