<?xml version="1.0" encoding="utf-8" standalone="no"?>
<!DOCTYPE svg PUBLIC "-//W3C//DTD SVG 1.1//EN"
  "http://www.w3.org/Graphics/SVG/1.1/DTD/svg11.dtd">
<svg xmlns:xlink="http://www.w3.org/1999/xlink" width="444.273333pt" height="389.68pt" viewBox="0 0 444.273333 389.68" xmlns="http://www.w3.org/2000/svg" version="1.1">
 <metadata>
  <rdf:RDF xmlns:dc="http://purl.org/dc/elements/1.1/" xmlns:cc="http://creativecommons.org/ns#" xmlns:rdf="http://www.w3.org/1999/02/22-rdf-syntax-ns#">
   <cc:Work>
    <dc:type rdf:resource="http://purl.org/dc/dcmitype/StillImage"/>
    <dc:date>2025-10-17T12:54:36.324618</dc:date>
    <dc:format>image/svg+xml</dc:format>
    <dc:creator>
     <cc:Agent>
      <dc:title>Matplotlib v3.10.6, https://matplotlib.org/</dc:title>
     </cc:Agent>
    </dc:creator>
   </cc:Work>
  </rdf:RDF>
 </metadata>
 <defs>
  <style type="text/css">*{stroke-linejoin: round; stroke-linecap: butt}</style>
 </defs>
 <g id="figure_1">
  <g id="patch_1">
   <path d="M 0 389.68 
L 444.273333 389.68 
L 444.273333 0 
L 0 0 
L 0 389.68 
z
" style="fill: none"/>
  </g>
  <g id="axes_1">
   <g id="patch_2">
    <path d="M 222.136667 244.0355 
C 225.65737 244.0355 229.034349 242.63671 231.523863 240.147196 
C 234.013376 237.657683 235.412167 234.280704 235.412167 230.76 
C 235.412167 227.239296 234.013376 223.862317 231.523863 221.372804 
C 229.034349 218.88329 225.65737 217.4845 222.136667 217.4845 
C 218.615963 217.4845 215.238984 218.88329 212.749471 221.372804 
C 210.259957 223.862317 208.861167 227.239296 208.861167 230.76 
C 208.861167 234.280704 210.259957 237.657683 212.749471 240.147196 
C 215.238984 242.63671 218.615963 244.0355 222.136667 244.0355 
z
" clip-path="url(#p96d6c7b2e0)" style="fill: #ffffff"/>
   </g>
   <g id="patch_3">
    <path d="M 223.120908 228.459697 
Q 271.803512 200.352783 320.486115 172.245868 
L 316.736115 165.750678 
Q 323.317089 167.147303 329.898063 168.543929 
Q 327.817089 174.941532 325.736115 181.339135 
L 321.986115 174.843945 
Q 273.303512 202.950859 224.620908 231.057773 
L 223.120908 228.459697 
z
" clip-path="url(#p96d6c7b2e0)" style="fill: #ffffff; stroke: #ffffff; stroke-width: 2.5; stroke-linecap: round"/>
   </g>
   <g id="line2d_1">
    <path d="M 222.136667 230.76 
L 223.092628 232.184526 
L 224.175716 233.406211 
L 225.392339 234.440803 
L 226.641386 235.207948 
L 227.877214 235.704067 
L 229.062653 235.937877 
L 230.169114 235.927822 
L 231.176259 235.699568 
L 232.12888 235.248875 
L 232.95385 234.617772 
L 233.695478 233.780939 
L 234.375904 232.65996 
L 234.92299 231.3045 
L 235.318148 229.718931 
L 235.543992 227.910818 
L 235.580625 225.757957 
L 235.391082 223.3829 
L 234.960722 220.806446 
L 234.277589 218.053225 
L 233.332656 215.151506 
L 232.120037 212.132971 
L 230.637178 209.032435 
L 228.885 205.887521 
L 226.868017 202.738298 
L 224.735058 199.808075 
L 222.384557 196.947731 
L 219.829225 194.194586 
L 217.261383 191.744538 
L 214.542243 189.45332 
L 211.68897 187.352107 
L 208.921776 185.589517 
L 206.071492 184.043615 
L 203.366487 182.822826 
L 200.621434 181.827419 
L 198.066307 181.123592 
L 195.504773 180.639379 
L 192.950932 180.386787 
L 190.629066 180.368202 
L 188.337315 180.56137 
L 186.087333 180.973328 
L 183.890927 181.610301 
L 181.760006 182.47765 
L 179.889693 183.469828 
L 178.092367 184.65876 
L 176.376975 186.046438 
L 174.752392 187.634162 
L 173.227388 189.422515 
L 171.810591 191.411349 
L 170.510453 193.599767 
L 169.335214 195.986111 
L 168.292868 198.567955 
L 167.308973 201.629935 
L 166.505025 204.919212 
L 165.890328 208.429273 
L 165.473617 212.152462 
L 165.263006 216.079979 
L 165.265936 220.201895 
L 165.489128 224.507174 
L 165.938541 228.983687 
L 166.61932 233.618246 
L 167.535763 238.396634 
L 168.69128 243.303644 
L 170.088358 248.323122 
L 171.728529 253.438013 
L 173.612342 258.630414 
L 175.739342 263.881634 
L 178.108042 269.172252 
L 180.715915 274.482185 
L 183.559374 279.790756 
L 186.633768 285.076772 
L 189.933377 290.318595 
L 193.451413 295.494231 
L 197.180021 300.581406 
L 201.110294 305.557658 
L 205.232284 310.400424 
L 209.535022 315.087132 
L 213.593397 319.193425 
L 217.781581 323.135385 
L 222.089243 326.89642 
L 226.505429 330.46018 
L 231.018592 333.810614 
L 235.616615 336.932032 
L 240.286843 339.809164 
L 244.540918 342.177483 
L 248.832903 344.32553 
L 253.15259 346.243279 
L 257.489504 347.921126 
L 261.832928 349.349919 
L 266.17193 350.520993 
L 270.016119 351.33899 
L 273.840106 351.94155 
L 277.635878 352.323671 
L 281.395356 352.480723 
L 285.110401 352.408469 
L 288.772837 352.103072 
L 291.927867 351.641904 
L 291.927867 351.641904 
" clip-path="url(#p96d6c7b2e0)" style="fill: none; stroke: #ffffff; stroke-width: 4.5; stroke-linecap: round"/>
   </g>
   <g id="line2d_2">
    <path d="M 222.136667 230.76 
L 221.180706 229.335474 
L 220.097617 228.113789 
L 218.880994 227.079197 
L 217.631948 226.312052 
L 216.39612 225.815933 
L 215.210681 225.582123 
L 214.104219 225.592178 
L 213.097075 225.820432 
L 212.144453 226.271125 
L 211.319483 226.902228 
L 210.577856 227.739061 
L 209.897429 228.86004 
L 209.350343 230.2155 
L 208.955185 231.801069 
L 208.729341 233.609182 
L 208.692708 235.762043 
L 208.882251 238.1371 
L 209.312611 240.713554 
L 209.995744 243.466775 
L 210.940678 246.368494 
L 212.153296 249.387029 
L 213.636156 252.487565 
L 215.388333 255.632479 
L 217.405316 258.781702 
L 219.538275 261.711925 
L 221.888776 264.572269 
L 224.444108 267.325414 
L 227.011951 269.775462 
L 229.73109 272.06668 
L 232.584364 274.167893 
L 235.351558 275.930483 
L 238.201842 277.476385 
L 240.906846 278.697174 
L 243.651899 279.692581 
L 246.207026 280.396408 
L 248.76856 280.880621 
L 251.322402 281.133213 
L 253.644268 281.151798 
L 255.936018 280.95863 
L 258.186 280.546672 
L 260.382406 279.909699 
L 262.513328 279.04235 
L 264.38364 278.050172 
L 266.180966 276.86124 
L 267.896358 275.473562 
L 269.520941 273.885838 
L 271.045945 272.097485 
L 272.462742 270.108651 
L 273.76288 267.920233 
L 274.938119 265.533889 
L 275.980465 262.952045 
L 276.96436 259.890065 
L 277.768308 256.600788 
L 278.383005 253.090727 
L 278.799716 249.367538 
L 279.010327 245.440021 
L 279.007398 241.318105 
L 278.784205 237.012826 
L 278.334793 232.536313 
L 277.654014 227.901754 
L 276.73757 223.123366 
L 275.582053 218.216356 
L 274.184975 213.196878 
L 272.544804 208.081987 
L 270.660991 202.889586 
L 268.533992 197.638366 
L 266.165291 192.347748 
L 263.557419 187.037815 
L 260.71396 181.729244 
L 257.639565 176.443228 
L 254.339956 171.201405 
L 250.821921 166.025769 
L 247.093313 160.938594 
L 243.16304 155.962342 
L 239.041049 151.119576 
L 234.738311 146.432868 
L 230.679936 142.326575 
L 226.491752 138.384615 
L 222.18409 134.62358 
L 217.767904 131.05982 
L 213.254741 127.709386 
L 208.656718 124.587968 
L 203.98649 121.710836 
L 199.732415 119.342517 
L 195.44043 117.19447 
L 191.120743 115.276721 
L 186.783829 113.598874 
L 182.440405 112.170081 
L 178.101403 110.999007 
L 174.257214 110.18101 
L 170.433228 109.57845 
L 166.637455 109.196329 
L 162.877977 109.039277 
L 159.162932 109.111531 
L 155.500496 109.416928 
L 152.345467 109.878096 
L 152.345467 109.878096 
" clip-path="url(#p96d6c7b2e0)" style="fill: none; stroke: #ffffff; stroke-width: 4.5; stroke-linecap: round"/>
   </g>
   <g id="line2d_3">
    <path d="M 268.214826 144.237855 
L 262.686418 138.310909 
L 257.030922 132.67371 
L 252.716548 128.64662 
L 248.348257 124.799571 
L 243.933752 121.139346 
L 239.480815 117.672397 
L 234.997298 114.404838 
L 230.491106 111.34243 
L 225.970184 108.490572 
L 221.442502 105.854292 
L 216.916045 103.43824 
L 212.398792 101.246673 
L 207.898709 99.283458 
L 203.423729 97.552054 
L 198.981743 96.055515 
L 194.580582 94.796479 
L 190.228006 93.777166 
L 185.93169 92.999374 
L 181.699209 92.464474 
L 177.538025 92.173408 
L 173.455474 92.12669 
L 169.458755 92.324403 
L 165.554915 92.766197 
L 161.750837 93.451295 
L 158.053228 94.378487 
L 154.468607 95.546139 
L 151.003294 96.952193 
L 147.6634 98.594169 
L 144.454813 100.469172 
L 141.383189 102.573897 
L 138.453946 104.904632 
L 135.672248 107.457268 
L 133.042999 110.227305 
L 130.570834 113.209858 
L 128.260114 116.399669 
L 126.114911 119.791113 
L 124.139008 123.378212 
L 122.335889 127.15464 
L 120.708733 131.113739 
L 119.260409 135.248528 
L 117.993471 139.551718 
L 116.910152 144.015721 
L 116.012362 148.632667 
L 115.301685 153.394415 
L 114.779373 158.29257 
L 114.446348 163.318495 
L 114.303196 168.46333 
L 114.35017 173.718002 
L 114.587187 179.073247 
L 115.013828 184.519624 
L 115.629343 190.047529 
L 116.432646 195.647215 
L 117.42232 201.308811 
L 118.59662 207.022333 
L 119.953476 212.777709 
L 121.490496 218.564789 
L 123.815381 226.312575 
L 126.448417 234.074299 
L 129.381351 241.825636 
L 132.604991 249.542292 
L 136.109234 257.200082 
L 139.883097 264.775006 
L 143.914753 272.243322 
L 148.191565 279.581625 
L 152.70013 286.766915 
L 157.426318 293.776673 
L 162.355315 300.588929 
L 167.471674 307.182333 
L 172.75936 313.53622 
L 178.2018 319.630677 
L 183.781937 325.446603 
L 189.482283 330.965769 
L 193.825694 334.899954 
L 198.219021 338.650525 
L 202.654519 342.210869 
L 207.124366 345.57471 
L 211.620683 348.736116 
L 216.13554 351.689513 
L 220.660979 354.429694 
L 225.189019 356.951828 
L 229.711677 359.251467 
L 234.22098 361.324558 
L 238.708976 363.167444 
L 243.167753 364.776877 
L 247.589449 366.15002 
L 251.966268 367.28445 
L 256.290493 368.178168 
L 260.554501 368.829598 
L 264.750772 369.237592 
L 268.871908 369.40143 
L 272.910643 369.320823 
L 276.859857 368.995914 
L 280.712586 368.427275 
L 284.462037 367.615909 
L 288.101599 366.563246 
L 291.624856 365.271143 
L 295.025595 363.741877 
L 298.297821 361.978145 
L 301.435764 359.983057 
L 304.433891 357.76013 
L 307.286916 355.313284 
L 309.989809 352.646832 
L 312.537804 349.765476 
L 314.926409 346.674297 
L 317.151413 343.378744 
L 319.208892 339.884629 
L 321.095219 336.19811 
L 322.807067 332.32569 
L 324.34142 328.274194 
L 325.695571 324.050767 
L 326.867132 319.662855 
L 327.854039 315.118195 
L 328.654551 310.424799 
L 329.267256 305.590943 
L 329.691075 300.625149 
L 329.925261 295.536172 
L 329.969399 290.332986 
L 329.823413 285.024764 
L 329.48756 279.620866 
L 328.962431 274.130819 
L 328.248954 268.564303 
L 327.348386 262.931133 
L 326.262314 257.24124 
L 324.992653 251.504657 
L 323.541643 245.731499 
L 321.329331 237.994658 
L 320.106122 234.116216 
L 320.106122 234.116216 
" clip-path="url(#p96d6c7b2e0)" style="fill: none; stroke: #ffffff; stroke-width: 4.5; stroke-linecap: round"/>
   </g>
  </g>
  <g id="text_1">
   <!-- echoIA -->
   <g style="fill: #ffffff" transform="translate(106.705417 61.775) scale(0.8 -0.8)">
    <defs>
     <path id="GillSans-65" d="M 2853 1388 
L 831 1388 
Q 853 975 1108 731 
Q 1363 488 1766 488 
Q 2328 488 2803 838 
L 2803 281 
Q 2541 106 2283 31 
Q 2025 -44 1678 -44 
Q 1203 -44 909 153 
Q 616 350 439 683 
Q 263 1016 263 1453 
Q 263 2109 634 2520 
Q 1006 2931 1600 2931 
Q 2172 2931 2512 2531 
Q 2853 2131 2853 1459 
L 2853 1388 
z
M 844 1728 
L 2291 1728 
Q 2269 2069 2087 2253 
Q 1906 2438 1600 2438 
Q 1294 2438 1098 2253 
Q 903 2069 844 1728 
z
" transform="scale(0.015625)"/>
     <path id="GillSans-63" d="M 2559 672 
L 2559 109 
Q 2131 -50 1722 -50 
Q 1047 -50 645 350 
Q 244 750 244 1422 
Q 244 2100 634 2515 
Q 1025 2931 1663 2931 
Q 1884 2931 2061 2889 
Q 2238 2847 2497 2731 
L 2497 2125 
Q 2066 2400 1697 2400 
Q 1313 2400 1066 2129 
Q 819 1859 819 1441 
Q 819 1000 1086 740 
Q 1353 481 1806 481 
Q 2134 481 2559 672 
z
" transform="scale(0.015625)"/>
     <path id="GillSans-68" d="M 391 4366 
L 959 4366 
L 959 2497 
Q 1316 2931 1844 2931 
Q 2131 2931 2359 2787 
Q 2588 2644 2698 2391 
Q 2809 2138 2809 1638 
L 2809 0 
L 2241 0 
L 2241 1778 
Q 2241 2094 2086 2286 
Q 1931 2478 1678 2478 
Q 1491 2478 1325 2381 
Q 1159 2284 959 2059 
L 959 0 
L 391 0 
L 391 4366 
z
" transform="scale(0.015625)"/>
     <path id="GillSans-6f" d="M 1778 2881 
Q 2434 2881 2868 2457 
Q 3303 2034 3303 1394 
Q 3303 772 2862 361 
Q 2422 -50 1753 -50 
Q 1106 -50 672 367 
Q 238 784 238 1409 
Q 238 2041 677 2461 
Q 1116 2881 1778 2881 
z
M 1747 2369 
Q 1338 2369 1075 2100 
Q 813 1831 813 1416 
Q 813 1003 1081 742 
Q 1350 481 1772 481 
Q 2191 481 2458 745 
Q 2725 1009 2725 1422 
Q 2725 1831 2447 2100 
Q 2169 2369 1747 2369 
z
" transform="scale(0.015625)"/>
     <path id="GillSans-49" d="M 488 4366 
L 1113 4366 
L 1113 0 
L 488 0 
L 488 4366 
z
" transform="scale(0.015625)"/>
     <path id="GillSans-41" d="M 1875 4391 
L 2316 4391 
L 4269 0 
L 3628 0 
L 3047 1294 
L 1191 1294 
L 641 0 
L 0 0 
L 1875 4391 
z
M 2791 1850 
L 2088 3431 
L 1434 1850 
L 2791 1850 
z
" transform="scale(0.015625)"/>
    </defs>
    <use xlink:href="#GillSans-65"/>
    <use xlink:href="#GillSans-63" transform="translate(47.900391 0)"/>
    <use xlink:href="#GillSans-68" transform="translate(91.699219 0)"/>
    <use xlink:href="#GillSans-6f" transform="translate(141.699219 0)"/>
    <use xlink:href="#GillSans-49" transform="translate(196.875 0)"/>
    <use xlink:href="#GillSans-41" transform="translate(221.875 0)"/>
   </g>
  </g>
 </g>
 <defs>
  <clipPath id="p96d6c7b2e0">
   <rect x="7.2" y="79.04" width="429.873333" height="303.44"/>
  </clipPath>
 </defs>
</svg>
