<?xml version="1.0" encoding="utf-8" standalone="no"?>
<!DOCTYPE svg PUBLIC "-//W3C//DTD SVG 1.1//EN"
  "http://www.w3.org/Graphics/SVG/1.1/DTD/svg11.dtd">
<svg xmlns:xlink="http://www.w3.org/1999/xlink" width="521.28pt" height="372.197647pt" viewBox="0 0 521.28 372.197647" xmlns="http://www.w3.org/2000/svg" version="1.1">
 <metadata>
  <rdf:RDF xmlns:dc="http://purl.org/dc/elements/1.1/" xmlns:cc="http://creativecommons.org/ns#" xmlns:rdf="http://www.w3.org/1999/02/22-rdf-syntax-ns#">
   <cc:Work>
    <dc:type rdf:resource="http://purl.org/dc/dcmitype/StillImage"/>
    <dc:date>2025-10-17T12:54:36.432378</dc:date>
    <dc:format>image/svg+xml</dc:format>
    <dc:creator>
     <cc:Agent>
      <dc:title>Matplotlib v3.10.6, https://matplotlib.org/</dc:title>
     </cc:Agent>
    </dc:creator>
   </cc:Work>
  </rdf:RDF>
 </metadata>
 <defs>
  <style type="text/css">*{stroke-linejoin: round; stroke-linecap: butt}</style>
 </defs>
 <g id="figure_1">
  <g id="patch_1">
   <path d="M 0 372.197647 
L 521.28 372.197647 
L 521.28 0 
L 0 0 
L 0 372.197647 
z
" style="fill: none"/>
  </g>
  <g id="axes_1">
   <g id="patch_2">
    <path d="M 260.64 201.752471 
C 264.791396 201.752471 268.77332 200.103104 271.7088 197.167624 
C 274.64428 194.232143 276.293647 190.250219 276.293647 186.098824 
C 276.293647 181.947428 274.64428 177.965504 271.7088 175.030024 
C 268.77332 172.094543 264.791396 170.445176 260.64 170.445176 
C 256.488604 170.445176 252.50668 172.094543 249.5712 175.030024 
C 246.63572 177.965504 244.986353 181.947428 244.986353 186.098824 
C 244.986353 190.250219 246.63572 194.232143 249.5712 197.167624 
C 252.50668 200.103104 256.488604 201.752471 260.64 201.752471 
z
" clip-path="url(#p1bd61a1382)" style="fill: #ffffff"/>
   </g>
   <g id="patch_3">
    <path d="M 261.619703 183.801141 
Q 320.113387 150.029797 378.607071 116.258452 
L 374.857071 109.763262 
Q 381.438161 111.15982 388.019252 112.556378 
Q 385.938161 118.954049 383.857071 125.351719 
L 380.107071 118.856529 
Q 321.613387 152.627873 263.119703 186.399217 
L 261.619703 183.801141 
z
" clip-path="url(#p1bd61a1382)" style="fill: #ffffff; stroke: #ffffff; stroke-width: 2.5; stroke-linecap: round"/>
   </g>
   <g id="line2d_1">
    <path d="M 260.64 186.098824 
L 261.655239 187.63202 
L 262.85128 189.025408 
L 264.125287 190.171656 
L 265.426974 191.058528 
L 266.790901 191.717224 
L 268.107847 192.10203 
L 269.347449 192.232549 
L 270.487892 192.135813 
L 271.586737 191.815382 
L 272.556858 191.306489 
L 273.456529 190.589468 
L 274.269434 189.660928 
L 274.979596 188.519548 
L 275.608889 187.061415 
L 276.084243 185.363674 
L 276.388487 183.432995 
L 276.50571 181.278966 
L 276.408349 178.749282 
L 276.066294 175.998471 
L 275.466436 173.048883 
L 274.598262 169.926337 
L 273.454051 166.659938 
L 272.029056 163.281866 
L 270.321657 159.827112 
L 268.333476 156.333195 
L 266.218915 153.057369 
L 263.868705 149.816215 
L 261.292291 146.645082 
L 258.50176 143.580164 
L 255.717013 140.847807 
L 252.772496 138.270014 
L 249.684069 135.876754 
L 246.702815 133.845599 
L 243.628208 132.022441 
L 240.721698 130.543804 
L 237.76391 129.279072 
L 234.769643 128.244885 
L 232.006086 127.512974 
L 229.237321 126.999693 
L 226.476172 126.715914 
L 223.735818 126.671745 
L 221.273966 126.847338 
L 218.850739 127.234964 
L 216.476569 127.840304 
L 214.161985 128.668357 
L 211.917568 129.723404 
L 209.75392 131.008975 
L 207.884436 132.365377 
L 206.096608 133.91219 
L 204.39804 135.650318 
L 202.796242 137.580107 
L 201.29861 139.701332 
L 199.765568 142.281779 
L 198.379799 145.095609 
L 197.150729 148.139959 
L 196.087451 151.411049 
L 195.198687 154.904176 
L 194.492747 158.61371 
L 193.977488 162.533098 
L 193.660279 166.654863 
L 193.547962 170.970619 
L 193.646818 175.471076 
L 193.962529 180.146057 
L 194.500149 184.984516 
L 195.264071 189.974559 
L 196.257998 195.103469 
L 197.484913 200.357734 
L 198.947059 205.723078 
L 200.645911 211.184499 
L 202.582155 216.726301 
L 204.755673 222.332142 
L 207.165526 227.985072 
L 209.809936 233.667584 
L 212.686283 239.361662 
L 215.791089 245.048835 
L 219.120019 250.710229 
L 222.667877 256.326629 
L 226.428604 261.878532 
L 230.395287 267.346216 
L 234.56016 272.709798 
L 238.914618 277.9493 
L 243.449229 283.044718 
L 248.153749 287.976086 
L 253.017141 292.723547 
L 257.520286 296.822753 
L 262.133439 300.742876 
L 266.847002 304.469945 
L 271.650925 307.990233 
L 276.53472 311.290305 
L 281.487486 314.357052 
L 286.497931 317.177736 
L 290.990665 319.468465 
L 295.511347 321.54667 
L 300.051361 323.404297 
L 304.601909 325.033616 
L 309.154022 326.427247 
L 313.698582 327.578175 
L 318.226337 328.479776 
L 322.727916 329.125832 
L 326.637886 329.476941 
L 330.514175 329.624359 
L 334.350352 329.564756 
L 338.139959 329.295084 
L 341.87652 328.812578 
L 342.933459 328.635275 
L 342.933459 328.635275 
" clip-path="url(#p1bd61a1382)" style="fill: none; stroke: #ffffff; stroke-width: 4.5; stroke-linecap: round"/>
   </g>
   <g id="line2d_2">
    <path d="M 260.64 186.098824 
L 259.624761 184.565627 
L 258.42872 183.17224 
L 257.154713 182.025991 
L 255.853026 181.139119 
L 254.489099 180.480423 
L 253.172153 180.095617 
L 251.932551 179.965098 
L 250.792108 180.061834 
L 249.693263 180.382265 
L 248.723142 180.891158 
L 247.823471 181.608179 
L 247.010566 182.536719 
L 246.300404 183.678099 
L 245.671111 185.136232 
L 245.195757 186.833973 
L 244.891513 188.764652 
L 244.77429 190.918681 
L 244.871651 193.448365 
L 245.213706 196.199176 
L 245.813564 199.148764 
L 246.681738 202.271311 
L 247.825949 205.537709 
L 249.250944 208.915781 
L 250.958343 212.370535 
L 252.946524 215.864453 
L 255.061085 219.140278 
L 257.411295 222.381432 
L 259.987709 225.552565 
L 262.77824 228.617483 
L 265.562987 231.34984 
L 268.507504 233.927633 
L 271.595931 236.320893 
L 274.577185 238.352048 
L 277.651792 240.175206 
L 280.558302 241.653843 
L 283.51609 242.918576 
L 286.510357 243.952762 
L 289.273914 244.684673 
L 292.042679 245.197954 
L 294.803828 245.481733 
L 297.544182 245.525903 
L 300.006034 245.350309 
L 302.429261 244.962683 
L 304.803431 244.357343 
L 307.118015 243.52929 
L 309.362432 242.474244 
L 311.52608 241.188673 
L 313.395564 239.83227 
L 315.183392 238.285457 
L 316.88196 236.547329 
L 318.483758 234.61754 
L 319.98139 232.496315 
L 321.514432 229.915868 
L 322.900201 227.102038 
L 324.129271 224.057688 
L 325.192549 220.786598 
L 326.081313 217.293471 
L 326.787253 213.583937 
L 327.302512 209.664549 
L 327.619721 205.542784 
L 327.732038 201.227028 
L 327.633182 196.726571 
L 327.317471 192.05159 
L 326.779851 187.213131 
L 326.015929 182.223088 
L 325.022002 177.094178 
L 323.795087 171.839913 
L 322.332941 166.474569 
L 320.634089 161.013148 
L 318.697845 155.471346 
L 316.524327 149.865505 
L 314.114474 144.212575 
L 311.470064 138.530063 
L 308.593717 132.835985 
L 305.488911 127.148812 
L 302.159981 121.487418 
L 298.612123 115.871018 
L 294.851396 110.319115 
L 290.884713 104.851431 
L 286.71984 99.487849 
L 282.365382 94.248347 
L 277.830771 89.152929 
L 273.126251 84.221562 
L 268.262859 79.4741 
L 263.759714 75.374894 
L 259.146561 71.454771 
L 254.432998 67.727702 
L 249.629075 64.207414 
L 244.74528 60.907342 
L 239.792514 57.840595 
L 234.782069 55.019911 
L 230.289335 52.729182 
L 225.768653 50.650977 
L 221.228639 48.79335 
L 216.678091 47.164031 
L 212.125978 45.7704 
L 207.581418 44.619472 
L 203.053663 43.717871 
L 198.552084 43.071815 
L 194.642114 42.720706 
L 190.765825 42.573288 
L 186.929648 42.632891 
L 183.140041 42.902563 
L 179.40348 43.385069 
L 178.346541 43.562372 
L 178.346541 43.562372 
" clip-path="url(#p1bd61a1382)" style="fill: none; stroke: #ffffff; stroke-width: 4.5; stroke-linecap: round"/>
   </g>
   <g id="line2d_3">
    <path d="M 314.972511 84.077271 
L 310.098299 78.804563 
L 305.136885 73.721031 
L 300.097016 68.835637 
L 294.98758 64.156995 
L 289.817583 59.693353 
L 284.596143 55.452583 
L 279.332464 51.442161 
L 274.035828 47.669157 
L 268.715573 44.140225 
L 263.381079 40.861586 
L 258.041753 37.839022 
L 252.707008 35.07786 
L 247.38625 32.58297 
L 242.08886 30.358751 
L 236.824178 28.409124 
L 231.601487 26.737526 
L 226.429995 25.346905 
L 221.31882 24.239712 
L 216.276975 23.417901 
L 211.313347 22.882919 
L 206.436689 22.63571 
L 201.6556 22.67671 
L 196.978509 23.005847 
L 192.413662 23.62254 
L 187.969107 24.525702 
L 183.652682 25.71374 
L 179.471997 27.18456 
L 175.434422 28.935569 
L 171.547077 30.963679 
L 167.816816 33.265315 
L 164.250215 35.836418 
L 160.853563 38.672455 
L 157.632849 41.768426 
L 154.593751 45.118873 
L 151.741628 48.717887 
L 149.081509 52.559123 
L 146.618083 56.635809 
L 144.355694 60.940757 
L 142.298331 65.466376 
L 140.449621 70.204688 
L 138.812824 75.147337 
L 137.390826 80.28561 
L 136.186134 85.610447 
L 135.200871 91.112459 
L 134.436776 96.781946 
L 133.895196 102.608911 
L 133.577084 108.583081 
L 133.483003 114.693922 
L 133.613117 120.93066 
L 133.967199 127.282299 
L 134.544622 133.73764 
L 135.34437 140.285302 
L 136.365032 146.913739 
L 137.604808 153.611265 
L 139.061513 160.366071 
L 140.732578 167.166248 
L 142.615058 173.999806 
L 144.705632 180.854695 
L 147.000615 187.718832 
L 149.495961 194.580111 
L 152.187269 201.426437 
L 155.069795 208.245739 
L 158.138457 215.025992 
L 161.387843 221.755242 
L 164.812225 228.421625 
L 168.405566 235.013387 
L 172.161528 241.518905 
L 176.073492 247.92671 
L 180.134557 254.225504 
L 184.337566 260.40418 
L 188.675107 266.451845 
L 193.139532 272.357837 
L 197.72297 278.111741 
L 202.417339 283.703414 
L 207.214364 289.122995 
L 212.105586 294.360931 
L 217.082381 299.407985 
L 222.135974 304.255258 
L 227.257455 308.894205 
L 232.437795 313.316646 
L 237.667859 317.514783 
L 242.938426 321.481216 
L 248.240203 325.20895 
L 253.563844 328.691412 
L 258.89996 331.922464 
L 264.239144 334.896408 
L 269.571983 337.608 
L 274.889073 340.05246 
L 280.18104 342.225478 
L 285.438554 344.123222 
L 290.652344 345.742346 
L 295.813218 347.079996 
L 300.912076 348.133813 
L 305.93993 348.901939 
L 310.887912 349.38302 
L 315.747301 349.576208 
L 320.509528 349.481161 
L 325.166195 349.098048 
L 329.709095 348.427544 
L 334.130215 347.470832 
L 338.421761 346.229597 
L 342.576168 344.706029 
L 346.586109 342.902813 
L 350.444514 340.82313 
L 354.144582 338.470646 
L 357.679787 335.849508 
L 361.043898 332.964338 
L 364.230982 329.820224 
L 367.23542 326.422708 
L 370.051915 322.777781 
L 372.675502 318.891869 
L 375.101554 314.771824 
L 377.325793 310.42491 
L 379.344299 305.858792 
L 381.153512 301.08152 
L 382.750243 296.101516 
L 384.131676 290.927562 
L 385.295375 285.56878 
L 386.239289 280.034619 
L 386.961754 274.334835 
L 387.461495 268.479478 
L 387.737631 262.478872 
L 387.789677 256.343598 
L 387.617539 250.084472 
L 387.221522 243.71253 
L 386.602323 237.239006 
L 385.761035 230.675316 
L 384.69914 224.03303 
L 383.418511 217.323861 
L 381.921407 210.559638 
L 380.210465 203.752287 
L 378.288704 196.913811 
L 376.159512 190.056266 
L 376.159512 190.056266 
" clip-path="url(#p1bd61a1382)" style="fill: none; stroke: #ffffff; stroke-width: 4.5; stroke-linecap: round"/>
   </g>
  </g>
 </g>
 <defs>
  <clipPath id="p1bd61a1382">
   <rect x="7.2" y="7.2" width="506.88" height="357.797647"/>
  </clipPath>
 </defs>
</svg>
